<svg xmlns="http://www.w3.org/2000/svg" xmlns:xlink="http://www.w3.org/1999/xlink" width="344" zoomAndPan="magnify" viewBox="0 0 258 66" height="88" preserveAspectRatio="xMidYMid meet" version="1.0"><defs><clipPath id="581aadf668"><path d="M 246 16 L 248.246094 16 L 248.246094 50 L 246 50 Z M 246 16 " clip-rule="nonzero"/></clipPath></defs><path fill="#ffffff" d="M 88.839844 16.238281 L 88.839844 29.085938 L 76.523438 29.085938 L 76.523438 16.238281 L 70.375 16.238281 L 70.375 49.382812 L 76.53125 49.382812 L 76.53125 34.847656 L 88.847656 34.847656 L 88.847656 49.382812 L 95.003906 49.382812 L 95.003906 16.238281 Z M 88.839844 16.238281 " fill-opacity="1" fill-rule="nonzero"/><path fill="#ffffff" d="M 109.8125 25.332031 C 109.011719 25.332031 108.214844 25.410156 107.429688 25.566406 C 106.640625 25.722656 105.878906 25.953125 105.136719 26.261719 C 104.394531 26.566406 103.691406 26.941406 103.023438 27.390625 C 102.359375 27.835938 101.742188 28.339844 101.171875 28.90625 C 100.605469 29.476562 100.097656 30.09375 99.652344 30.757812 C 99.207031 31.425781 98.832031 32.128906 98.523438 32.871094 C 98.21875 33.613281 97.984375 34.375 97.828125 35.164062 C 97.671875 35.949219 97.59375 36.746094 97.59375 37.546875 C 97.59375 38.347656 97.671875 39.144531 97.828125 39.929688 C 97.984375 40.71875 98.214844 41.480469 98.523438 42.222656 C 98.832031 42.964844 99.207031 43.667969 99.652344 44.335938 C 100.097656 45.003906 100.605469 45.621094 101.171875 46.1875 C 101.738281 46.753906 102.355469 47.261719 103.023438 47.707031 C 103.691406 48.152344 104.394531 48.527344 105.136719 48.835938 C 105.878906 49.140625 106.640625 49.375 107.429688 49.53125 C 108.214844 49.6875 109.007812 49.765625 109.8125 49.765625 C 110.613281 49.765625 111.410156 49.6875 112.195312 49.53125 C 112.980469 49.375 113.746094 49.140625 114.488281 48.835938 C 115.226562 48.527344 115.933594 48.152344 116.597656 47.707031 C 117.265625 47.257812 117.882812 46.753906 118.449219 46.183594 C 119.019531 45.617188 119.523438 45 119.96875 44.332031 C 120.414062 43.667969 120.792969 42.960938 121.097656 42.222656 C 121.40625 41.480469 121.636719 40.714844 121.792969 39.929688 C 121.949219 39.140625 122.027344 38.347656 122.027344 37.546875 C 122.03125 36.742188 121.953125 35.949219 121.796875 35.160156 C 121.644531 34.375 121.414062 33.609375 121.105469 32.867188 C 120.800781 32.125 120.425781 31.421875 119.976562 30.753906 C 119.53125 30.085938 119.027344 29.46875 118.457031 28.898438 C 117.890625 28.332031 117.273438 27.824219 116.605469 27.378906 C 115.9375 26.933594 115.234375 26.558594 114.492188 26.253906 C 113.75 25.945312 112.984375 25.714844 112.199219 25.5625 C 111.410156 25.40625 110.617188 25.328125 109.8125 25.332031 Z M 109.859375 43.75 C 106.355469 43.75 103.753906 41.050781 103.753906 37.546875 C 103.753906 34.042969 106.355469 31.34375 109.859375 31.34375 C 113.363281 31.34375 115.875 34.042969 115.875 37.546875 C 115.875 41.046875 113.363281 43.75 109.859375 43.75 Z M 109.859375 43.75 " fill-opacity="1" fill-rule="nonzero"/><path fill="#ffffff" d="M 130.550781 32.953125 C 130.550781 31.722656 132.0625 30.777344 134.101562 30.777344 C 136.136719 30.777344 137.980469 31.722656 137.980469 33.101562 L 143.851562 33.101562 C 143.851562 28.082031 139.6875 25.335938 134.195312 25.335938 C 128.699219 25.335938 124.394531 28.320312 124.394531 32.488281 C 124.394531 41.859375 138.359375 38.0625 138.359375 42.003906 C 138.359375 43.230469 137.035156 44.273438 134.476562 44.273438 C 131.917969 44.273438 130.027344 43.230469 130.027344 41.71875 L 124.15625 41.71875 C 124.15625 47.019531 129.035156 49.765625 134.335938 49.765625 C 140.113281 49.765625 144.558594 47.441406 144.515625 42.144531 C 144.421875 33.191406 130.550781 36.363281 130.550781 32.953125 Z M 130.550781 32.953125 " fill-opacity="1" fill-rule="nonzero"/><path fill="#ffffff" d="M 159.191406 31.722656 L 159.191406 25.710938 L 154.929688 25.710938 L 154.929688 16.289062 L 148.777344 16.289062 L 148.777344 25.710938 L 145.273438 25.710938 L 145.273438 31.722656 L 148.777344 31.722656 L 148.777344 38.210938 C 148.777344 46.164062 153.132812 49.527344 159.191406 49.527344 L 159.191406 43.511719 C 156.171875 43.511719 154.929688 42 154.929688 38.210938 L 154.929688 31.722656 Z M 159.191406 31.722656 " fill-opacity="1" fill-rule="nonzero"/><path fill="#ffffff" d="M 178.746094 16.238281 L 177.324219 16.238281 L 162.976562 49.382812 L 164.539062 49.382812 L 168.753906 39.582031 L 187.402344 39.582031 L 191.617188 49.382812 L 193.175781 49.382812 Z M 169.277344 38.304688 L 178.035156 17.945312 L 186.839844 38.304688 Z M 169.277344 38.304688 " fill-opacity="1" fill-rule="nonzero"/><path fill="#ffffff" d="M 205.019531 25.332031 C 198.960938 25.332031 194.601562 28.976562 194.601562 36.933594 L 194.601562 49.382812 L 196.023438 49.382812 L 196.023438 36.933594 C 196.023438 29.921875 199.90625 26.609375 205.019531 26.609375 C 210.136719 26.609375 214.015625 29.921875 214.015625 36.933594 L 214.015625 49.382812 L 215.4375 49.382812 L 215.4375 36.933594 C 215.4375 28.976562 211.078125 25.332031 205.019531 25.332031 Z M 205.019531 25.332031 " fill-opacity="1" fill-rule="nonzero"/><path fill="#ffffff" d="M 238.113281 25.710938 L 227.742188 47.726562 L 217.421875 25.710938 L 215.90625 25.710938 L 227.035156 49.382812 L 228.453125 49.382812 L 239.628906 25.710938 Z M 238.113281 25.710938 " fill-opacity="1" fill-rule="nonzero"/><path fill="#ffffff" d="M 241.378906 25.710938 L 241.378906 49.382812 L 242.796875 49.382812 L 242.796875 25.710938 Z M 242.089844 18.703125 C 241.949219 18.703125 241.816406 18.730469 241.691406 18.78125 C 241.5625 18.835938 241.449219 18.910156 241.351562 19.007812 C 241.253906 19.105469 241.179688 19.21875 241.128906 19.347656 C 241.074219 19.472656 241.046875 19.605469 241.046875 19.746094 C 241.046875 19.882812 241.074219 20.015625 241.128906 20.144531 C 241.179688 20.269531 241.253906 20.382812 241.351562 20.480469 C 241.449219 20.578125 241.5625 20.652344 241.691406 20.707031 C 241.816406 20.757812 241.949219 20.785156 242.089844 20.785156 C 242.226562 20.785156 242.359375 20.757812 242.488281 20.707031 C 242.613281 20.652344 242.726562 20.578125 242.824219 20.480469 C 242.921875 20.382812 243 20.269531 243.050781 20.144531 C 243.105469 20.015625 243.128906 19.882812 243.128906 19.746094 C 243.136719 19.605469 243.117188 19.46875 243.066406 19.335938 C 243.015625 19.207031 242.941406 19.089844 242.839844 18.992188 C 242.742188 18.894531 242.625 18.820312 242.496094 18.769531 C 242.363281 18.71875 242.230469 18.695312 242.089844 18.703125 Z M 242.089844 18.703125 " fill-opacity="1" fill-rule="nonzero"/><g clip-path="url(#581aadf668)"><path fill="#ffffff" d="M 246.917969 16.238281 L 246.917969 49.382812 L 248.339844 49.382812 L 248.339844 16.238281 Z M 246.917969 16.238281 " fill-opacity="1" fill-rule="nonzero"/></g><path fill="#55bde5" d="M 59.761719 14.472656 L 38.222656 2.035156 C 37.6875 1.726562 37.121094 1.492188 36.523438 1.332031 C 35.929688 1.171875 35.320312 1.09375 34.703125 1.09375 C 34.085938 1.09375 33.480469 1.171875 32.882812 1.332031 C 32.289062 1.492188 31.722656 1.726562 31.1875 2.035156 L 9.644531 14.472656 C 9.109375 14.78125 8.625 15.152344 8.1875 15.589844 C 7.75 16.027344 7.378906 16.511719 7.070312 17.046875 C 6.761719 17.582031 6.527344 18.144531 6.367188 18.742188 C 6.207031 19.339844 6.128906 19.945312 6.128906 20.5625 L 6.128906 45.4375 C 6.128906 46.054688 6.207031 46.664062 6.367188 47.257812 C 6.527344 47.855469 6.761719 48.421875 7.070312 48.957031 C 7.378906 49.492188 7.75 49.976562 8.1875 50.414062 C 8.625 50.847656 9.109375 51.222656 9.644531 51.53125 L 31.1875 63.96875 C 31.722656 64.277344 32.289062 64.511719 32.882812 64.671875 C 33.480469 64.832031 34.085938 64.910156 34.703125 64.910156 C 35.320312 64.910156 35.929688 64.832031 36.523438 64.671875 C 37.121094 64.511719 37.6875 64.277344 38.222656 63.96875 L 59.761719 51.53125 C 60.296875 51.222656 60.78125 50.851562 61.21875 50.414062 C 61.65625 49.976562 62.027344 49.492188 62.335938 48.957031 C 62.648438 48.421875 62.882812 47.855469 63.039062 47.261719 C 63.199219 46.664062 63.28125 46.054688 63.28125 45.4375 L 63.28125 20.5625 C 63.28125 19.945312 63.199219 19.339844 63.039062 18.742188 C 62.882812 18.144531 62.648438 17.582031 62.335938 17.046875 C 62.027344 16.511719 61.65625 16.027344 61.21875 15.589844 C 60.78125 15.152344 60.296875 14.78125 59.761719 14.472656 Z M 52.304688 31.792969 L 48.535156 31.792969 C 48.167969 31.796875 47.808594 31.839844 47.449219 31.917969 C 47.089844 31.996094 46.746094 32.109375 46.410156 32.253906 C 46.074219 32.398438 45.753906 32.574219 45.453125 32.78125 C 45.152344 32.988281 44.871094 33.222656 44.617188 33.484375 C 44.359375 33.746094 44.132812 34.03125 43.929688 34.335938 C 43.730469 34.640625 43.558594 34.964844 43.421875 35.304688 C 43.285156 35.640625 43.179688 35.992188 43.109375 36.351562 C 43.039062 36.710938 43.003906 37.070312 43.003906 37.4375 C 43.003906 37.804688 43.039062 38.164062 43.109375 38.523438 C 43.179688 38.882812 43.285156 39.234375 43.421875 39.570312 C 43.558594 39.910156 43.730469 40.234375 43.929688 40.539062 C 44.132812 40.84375 44.359375 41.128906 44.617188 41.390625 C 44.871094 41.652344 45.152344 41.886719 45.453125 42.09375 C 45.753906 42.300781 46.074219 42.476562 46.410156 42.621094 C 46.746094 42.765625 47.089844 42.878906 47.449219 42.957031 C 47.808594 43.035156 48.167969 43.074219 48.535156 43.082031 L 48.535156 48.976562 L 23.101562 48.976562 L 23.101562 43.082031 C 23.472656 43.082031 23.84375 43.046875 24.207031 42.972656 C 24.570312 42.902344 24.925781 42.792969 25.269531 42.652344 C 25.613281 42.511719 25.941406 42.335938 26.25 42.128906 C 26.558594 41.925781 26.847656 41.691406 27.109375 41.429688 C 27.375 41.167969 27.609375 40.882812 27.820312 40.574219 C 28.027344 40.265625 28.203125 39.941406 28.351562 39.597656 C 28.496094 39.257812 28.605469 38.902344 28.679688 38.539062 C 28.757812 38.175781 28.796875 37.808594 28.800781 37.4375 C 28.800781 37.164062 28.78125 36.894531 28.742188 36.625 L 28.15625 36.625 C 27.085938 36.625 26.035156 36.480469 25.003906 36.195312 C 24.890625 36.164062 24.777344 36.132812 24.667969 36.097656 C 22.828125 35.519531 21.226562 34.550781 19.867188 33.1875 L 19.710938 33.027344 C 18.65625 31.9375 17.839844 30.683594 17.273438 29.273438 C 16.703125 27.863281 16.417969 26.398438 16.421875 24.878906 L 26.433594 24.878906 L 30.644531 29.175781 L 30.644531 21.742188 L 27.882812 21.742188 C 27.699219 21.742188 27.542969 21.679688 27.414062 21.550781 C 27.285156 21.421875 27.21875 21.265625 27.21875 21.082031 L 27.21875 16.730469 C 27.21875 16.546875 27.285156 16.390625 27.414062 16.261719 C 27.542969 16.132812 27.699219 16.066406 27.882812 16.066406 L 30.644531 16.066406 L 30.644531 15.289062 C 30.644531 15.136719 30.699219 15.007812 30.804688 14.902344 C 30.914062 14.792969 31.042969 14.742188 31.191406 14.742188 L 32.832031 14.742188 C 32.984375 14.742188 33.113281 14.792969 33.21875 14.902344 C 33.324219 15.007812 33.378906 15.136719 33.378906 15.289062 L 33.378906 16.066406 L 36.144531 16.066406 C 36.324219 16.066406 36.480469 16.132812 36.609375 16.261719 C 36.738281 16.390625 36.800781 16.546875 36.800781 16.730469 L 36.800781 21.082031 C 36.800781 21.265625 36.738281 21.417969 36.609375 21.546875 C 36.480469 21.679688 36.324219 21.742188 36.144531 21.742188 L 33.378906 21.742188 L 33.378906 23.253906 L 52.304688 23.253906 Z M 52.304688 31.792969 " fill-opacity="1" fill-rule="nonzero"/></svg>